<?xml version="1.0" encoding="iso-8859-1"?>
<!-- Generator: Adobe Illustrator 19.0.0, SVG Export Plug-In . SVG Version: 6.00 Build 0)  -->
<svg version="1.1" id="Layer_1" xmlns="http://www.w3.org/2000/svg" xmlns:xlink="http://www.w3.org/1999/xlink" x="0px" y="0px"
	 viewBox="0 0 502 502" style="enable-background:new 0 0 502 502;" xml:space="preserve">
<g>
	<polygon style="fill:#FFF9E6;" points="10,59 10,364 195,364 195,443 307,443 307,364 492,364 492,59 	"/>
	<g>
		<g>
			<polygon style="fill:#5CC9C1;" points="325.522,246.985 182.933,246.985 167.09,150.753 367.184,150.753 			"/>
			<g>
				<path d="M492,49H10C4.477,49,0,53.478,0,59v305c0,5.522,4.477,10,10,10h175v59h-57c-5.523,0-10,4.478-10,10s4.477,10,10,10h246
					c5.523,0,10-4.478,10-10s-4.477-10-10-10h-57v-59h175c5.523,0,10-4.478,10-10V59C502,53.478,497.523,49,492,49z M297,433h-92
					v-59h92V433z M482,354H307H195H20V69h462V354z"/>
				<path d="M43.5,340.5H138c5.523,0,10-4.478,10-10s-4.477-10-10-10H53.5V163c0-5.522-4.477-10-10-10s-10,4.478-10,10v167.5
					C33.5,336.022,37.977,340.5,43.5,340.5z"/>
				<path d="M43.5,139c5.523,0,10-4.478,10-10V99c0-5.522-4.477-10-10-10s-10,4.478-10,10v30C33.5,134.522,37.977,139,43.5,139z"/>
				<path d="M173.065,248.609c0.795,4.831,4.971,8.376,9.867,8.376h142.589c3.987,0,7.593-2.368,9.177-6.027l41.662-96.232
					c1.338-3.091,1.031-6.647-0.818-9.462s-4.99-4.511-8.358-4.511H175.578l-3.315-20.138c-0.79-4.799-4.917-8.333-9.78-8.376
					L134.903,112c-0.03,0-0.059,0-0.089,0c-5.482,0-9.95,4.42-9.998,9.913c-0.048,5.522,4.39,10.039,9.913,10.087l19.165,0.166
					L173.065,248.609z M351.958,160.753l-33.003,76.232H191.421l-2.033-12.348h110.847c5.523,0,10-4.478,10-10s-4.477-10-10-10
					h-114.14L184.344,194h95.23c5.523,0,10-4.478,10-10s-4.477-10-10-10h-98.523l-2.181-13.247H351.958z"/>
				<path d="M183.52,268c-10.199,0-18.496,8.297-18.496,18.496s8.297,18.496,18.496,18.496s18.496-8.297,18.496-18.496
					S193.718,268,183.52,268z"/>
				<path d="M310.496,268C300.297,268,292,276.297,292,286.496s8.297,18.496,18.496,18.496s18.496-8.297,18.496-18.496
					S320.695,268,310.496,268z"/>
				<path d="M310.394,194h7.929c5.523,0,10-4.478,10-10s-4.477-10-10-10h-7.929c-5.523,0-10,4.478-10,10S304.871,194,310.394,194z"
					/>
			</g>
		</g>
	</g>
</g>
<g>
</g>
<g>
</g>
<g>
</g>
<g>
</g>
<g>
</g>
<g>
</g>
<g>
</g>
<g>
</g>
<g>
</g>
<g>
</g>
<g>
</g>
<g>
</g>
<g>
</g>
<g>
</g>
<g>
</g>
</svg>
